<?xml version="1.0" encoding="utf-8"?>
<!-- Generator: Adobe Illustrator 22.0.1, SVG Export Plug-In . SVG Version: 6.00 Build 0)  -->
<svg version="1.1" id="Layer_2" xmlns="http://www.w3.org/2000/svg" xmlns:xlink="http://www.w3.org/1999/xlink" x="0px" y="0px"
	 viewBox="0 0 1573.9 283.8" style="enable-background:new 0 0 1573.9 283.8;" xml:space="preserve">
<style type="text/css">
	.st0{fill:#FFFFFF;}
	.st1{fill:#EDCA1B;}
</style>
<g>
	<g>
		<path class="st0" d="M421.7,79.2v56.3h74.9V79.2h14.2v124.3h-14.2v-55h-74.9v55h-14.2V79.2H421.7z"/>
		<path class="st0" d="M719.4,171.7h-67.7l-13.9,31.8h-15.1l55.8-124.3h14.7l55.6,124.3h-15.4L719.4,171.7z M713.7,158.6l-28.2-63.9
			l-27.9,63.9H713.7z"/>
		<path class="st0" d="M911,91.8c-28.1,0-50.6,21.8-50.6,49.4c0,27.3,22.6,49.5,50.6,49.5c13.7,0,27-5.7,36.8-14.9l8.7,9.4
			c-12.3,11.5-28.9,18.8-46.2,18.8c-35.9,0-64.3-27.7-64.3-62.9c0-34.8,28.8-62.3,64.8-62.3c17,0,33.6,6.9,45.5,18.1l-8.5,10.3
			C938.1,97.7,924.6,91.8,911,91.8z"/>
		<path class="st0" d="M1152.8,79.2v13.1h-40.7v111.2H1098V92.3h-40.5V79.2H1152.8z"/>
		<path class="st0" d="M1332.5,171.7h-67.7l-13.8,31.8h-15.1l55.8-124.3h14.7l55.6,124.3h-15.4L1332.5,171.7z M1326.9,158.6
			l-28.2-63.9l-27.9,63.9H1326.9z"/>
		<path class="st0" d="M1555.2,203.5l-26.1-39.8c-2.5,0.2-5.1,0.4-8,0.4h-33v39.4h-14.2V79.2h47.2c31.1,0,49,15.3,49,41.7
			c0,20.4-10.1,34.4-28.1,40.1l29.3,42.4H1555.2z M1521.1,150.9c22.6,0,35.3-10.1,35.3-29.7c0-19-12.8-28.9-35.3-28.9h-33v58.6
			H1521.1z"/>
	</g>
</g>
<g>
	<polygon class="st1" points="215.4,215.7 198.4,205.9 181.4,215.7 181.4,235.4 198.4,245.2 215.4,235.4 	"/>
	<path class="st1" d="M289.7,115l1.3-2.2l-17-9.8c-0.8-0.5-1.8-0.5-2.6,0l-17,9.8c-0.8,0.5-1.3,1.3-1.3,2.2v19.6
		c0,0.9,0.5,1.8,1.3,2.2l17,9.8c0.8,0.5,1.8,0.5,2.6,0l17-9.8c0.8-0.5,1.3-1.3,1.3-2.2V115c0-0.9-0.5-1.8-1.3-2.2L289.7,115h-2.6
		v18.1l-14.4,8.3l-14.4-8.3v-16.6l14.4-8.3l15.7,9.1L289.7,115h-2.6H289.7z"/>
	<path class="st1" d="M112.4,16.5l1.3-2.2l-20.9-12c-0.8-0.5-1.8-0.5-2.6,0l-20.9,12c-0.8,0.5-1.3,1.3-1.3,2.2v24.1
		c0,0.9,0.5,1.8,1.3,2.2l20.9,12c0.8,0.5,1.8,0.5,2.6,0l20.9-12c0.8-0.5,1.3-1.3,1.3-2.2V16.5c0-0.9-0.5-1.8-1.3-2.2L112.4,16.5
		h-2.6v22.6L91.5,49.7L73.2,39.1V18L91.5,7.5l19.6,11.3L112.4,16.5h-2.6H112.4z"/>
	<path class="st1" d="M102.2,218l1.3-2.2l-13.1-7.6c-0.8-0.5-1.8-0.5-2.6,0l-13.1,7.6c-0.8,0.5-1.3,1.3-1.3,2.2v15.1
		c0,0.9,0.5,1.8,1.3,2.2l13.1,7.6c0.8,0.5,1.8,0.5,2.6,0l13.1-7.6c0.8-0.5,1.3-1.3,1.3-2.2V218c0-0.9-0.5-1.8-1.3-2.2L102.2,218
		h-2.6v13.6l-10.5,6.1l-10.5-6.1v-12.1l10.5-6.1l11.8,6.8L102.2,218h-2.6H102.2z"/>
	<polygon class="st1" points="45.2,120.4 33.9,113.9 22.6,120.4 22.6,133.5 33.9,140 45.2,133.5 	"/>
	<path class="st1" d="M197.1,170.5l-45.7,26.4c-1.2,0.7-1.7,2.3-0.9,3.5c0.7,1.2,2.3,1.7,3.5,0.9l45.7-26.4c1.2-0.7,1.7-2.3,0.9-3.5
		C199.9,170.2,198.3,169.8,197.1,170.5"/>
	<path class="st1" d="M150.1,233.7V252c0,0.9,0.5,1.8,1.3,2.2l45.7,26.4c0.8,0.5,1.8,0.5,2.6,0l45.7-26.4c0.8-0.5,1.3-1.3,1.3-2.2
		v-52.8c0-0.9-0.5-1.8-1.3-2.2l-45.7-26.4c-1.2-0.7-2.8-0.3-3.5,0.9c-0.7,1.2-0.3,2.8,0.9,3.5l44.5,25.7v49.8l-43.2,24.9l-43.2-24.9
		l0-16.8c0-1.4-1.2-2.6-2.6-2.6C151.2,231.1,150.1,232.3,150.1,233.7L150.1,233.7z"/>
	<path class="st1" d="M66.9,129v-19.6c0-0.9-0.5-1.8-1.3-2.2L35.2,89.6c-0.8-0.5-1.8-0.5-2.6,0L2.2,107.1c-0.8,0.5-1.3,1.3-1.3,2.2
		v35.1c0,0.9,0.5,1.8,1.3,2.2l30.4,17.6c0.8,0.5,1.8,0.5,2.6,0l30.4-17.6c1.2-0.7,1.7-2.3,0.9-3.5c-0.7-1.2-2.3-1.7-3.5-0.9
		l-29.1,16.8L6.1,143v-32.1l27.8-16.1l27.8,16.1l0,18.1c0,1.4,1.2,2.6,2.6,2.6C65.8,131.6,66.9,130.4,66.9,129L66.9,129z"/>
	<path class="st1" d="M183.5,100.2l9.2,5.3c0.8,0.5,1.8,0.5,2.6,0l20.6-11.9c0.8-0.5,1.3-1.3,1.3-2.2V67.5c0-0.9-0.5-1.8-1.3-2.2
		l-20.6-11.9c-0.8-0.5-1.8-0.5-2.6,0l-20.6,11.9c-0.8,0.5-1.3,1.3-1.3,2.2v23.8c0,1.4,1.2,2.6,2.6,2.6c1.4,0,2.6-1.2,2.6-2.6l0-22.3
		L194,58.6L212,69v20.8L194,100.2l-7.9-4.6c-1.2-0.7-2.8-0.3-3.5,0.9C181.9,97.9,182.3,99.5,183.5,100.2L183.5,100.2z"/>
	<polygon class="st1" points="201.6,75 194,70.6 186.3,75 186.3,83.8 194,88.2 201.6,83.8 	"/>
	<path class="st1" d="M191.4,103.4l4.4,69.5c0.1,1.4,1.3,2.5,2.7,2.4c1.4-0.1,2.5-1.3,2.4-2.7l-4.4-69.5c-0.1-1.4-1.3-2.5-2.7-2.4
		C192.4,100.7,191.3,102,191.4,103.4"/>
	<path class="st1" d="M63,146.7l88.3,54.6c1.2,0.8,2.8,0.4,3.6-0.8c0.8-1.2,0.4-2.8-0.8-3.6l-88.3-54.6c-1.2-0.8-2.8-0.4-3.6,0.8
		C61.4,144.3,61.8,145.9,63,146.7"/>
	<path class="st1" d="M64.8,111.9l109-18.1c1.4-0.2,2.4-1.6,2.1-3c-0.2-1.4-1.6-2.4-3-2.1l-109,18.1c-1.4,0.2-2.4,1.6-2.1,3
		C62,111.2,63.4,112.1,64.8,111.9"/>
</g>
</svg>
