<?xml version="1.0" standalone="no"?>
<!DOCTYPE svg PUBLIC "-//W3C//DTD SVG 20010904//EN"
 "http://www.w3.org/TR/2001/REC-SVG-20010904/DTD/svg10.dtd">
<svg version="1.0" xmlns="http://www.w3.org/2000/svg"
 width="1498.000000pt" height="1498.000000pt" viewBox="0 0 1498.000000 1498.000000"
 preserveAspectRatio="xMidYMid meet">
<metadata>
Created by potrace 1.11, written by Peter Selinger 2001-2013
</metadata>
<g transform="translate(0.000000,1498.000000) scale(0.100000,-0.100000)"
fill="#000000" stroke="none">
<path d="M5150 13401 c-58 -34 -112 -65 -120 -71 -8 -5 -31 -18 -50 -28 -19
-11 -91 -52 -160 -92 -168 -98 -179 -105 -320 -185 -67 -38 -130 -81 -139 -95
-14 -21 -16 -81 -16 -533 0 -458 1 -512 16 -536 11 -18 80 -64 195 -131 339
-197 419 -243 454 -263 19 -10 82 -46 140 -80 66 -38 115 -60 133 -59 19 0
131 59 304 159 151 87 287 165 301 173 215 122 302 177 316 200 14 25 16 85
16 538 0 495 -1 510 -20 535 -18 22 -58 48 -210 135 -19 10 -75 43 -125 72
-49 29 -108 63 -130 75 -23 13 -124 71 -225 130 -107 62 -200 109 -220 112
-29 3 -53 -6 -140 -56z m673 -475 c149 -86 187 -113 188 -130 0 -11 0 -200 0
-420 1 -319 -2 -401 -13 -411 -7 -6 -114 -70 -238 -141 -124 -71 -232 -133
-242 -139 -9 -5 -66 -38 -127 -73 l-109 -62 -366 211 -366 211 0 422 0 422
223 127 c122 71 264 153 316 183 52 29 95 54 97 54 2 0 24 13 49 29 l46 29
177 -102 c97 -56 261 -151 365 -210z"/>
<path d="M9350 11412 c-36 -12 -848 -486 -870 -508 l-25 -24 -3 -455 c-1 -250
-6 -455 -10 -455 -4 0 -56 -9 -117 -19 -60 -11 -128 -22 -150 -25 -22 -4 -65
-11 -95 -16 -30 -5 -71 -12 -90 -15 -19 -3 -60 -10 -90 -15 -30 -5 -73 -12
-95 -16 -22 -3 -130 -21 -240 -39 -110 -19 -213 -36 -230 -38 -16 -3 -70 -12
-120 -21 -49 -8 -110 -18 -135 -21 -25 -3 -52 -8 -60 -10 -8 -2 -31 -7 -50
-10 -19 -3 -46 -7 -60 -10 -14 -2 -45 -7 -70 -10 -25 -4 -63 -10 -85 -15 -22
-5 -60 -11 -85 -14 -25 -3 -56 -8 -70 -11 -14 -3 -38 -7 -55 -10 -16 -3 -41
-7 -55 -10 -14 -2 -45 -7 -70 -10 -25 -3 -52 -8 -60 -10 -8 -3 -37 -7 -64 -10
-28 -4 -52 -8 -55 -10 -3 -2 -30 -6 -60 -10 -30 -4 -63 -9 -75 -11 -21 -4 -55
-10 -111 -19 -70 -11 -342 -57 -365 -61 -14 -2 -41 -7 -60 -10 -19 -3 -46 -7
-60 -10 -14 -2 -41 -7 -60 -10 -19 -3 -75 -12 -125 -21 -49 -8 -103 -17 -120
-20 -23 -4 -427 -70 -660 -109 -16 -2 -55 -9 -85 -14 -30 -5 -71 -12 -90 -15
-19 -3 -61 -10 -93 -16 -54 -9 -60 -8 -110 19 -48 27 -441 254 -752 434 -71
42 -148 86 -170 98 -22 12 -82 47 -134 78 -65 38 -105 55 -130 55 -29 1 -88
-29 -306 -155 -148 -85 -396 -228 -550 -317 -154 -88 -287 -165 -295 -171 -8
-5 -41 -24 -72 -41 -103 -57 -93 31 -96 -815 l-2 -743 27 -29 c23 -24 200
-130 548 -327 22 -13 108 -62 190 -110 83 -48 168 -98 190 -110 22 -13 107
-62 189 -109 83 -47 161 -86 175 -86 15 0 76 29 136 63 61 35 229 132 375 217
146 84 285 164 310 178 25 14 57 33 72 43 14 11 28 19 31 19 3 0 66 36 141 80
76 44 142 80 147 80 6 0 41 -18 77 -41 77 -46 62 -37 251 -155 80 -49 233
-144 339 -210 105 -65 204 -127 220 -136 15 -10 39 -24 53 -32 15 -9 125 -77
245 -152 121 -75 233 -145 249 -154 44 -26 941 -581 1090 -675 28 -17 90 -56
138 -86 48 -30 100 -62 115 -71 15 -10 38 -24 52 -32 14 -8 171 -105 350 -216
239 -148 333 -202 356 -202 21 0 100 40 260 132 126 73 317 183 424 245 107
62 283 163 390 225 107 62 209 121 225 130 17 10 129 74 250 145 121 70 234
135 251 145 l31 18 459 -266 c252 -145 479 -276 504 -290 25 -14 83 -47 130
-75 47 -27 110 -64 140 -82 30 -17 152 -87 270 -155 118 -68 217 -125 219
-127 2 -1 5 -449 5 -995 1 -919 0 -994 -16 -1007 -9 -8 -41 -28 -72 -45 -59
-33 -159 -91 -216 -123 -19 -12 -120 -70 -225 -131 -104 -60 -417 -240 -694
-400 l-503 -291 -42 23 c-22 13 -81 47 -131 76 -49 29 -110 64 -135 78 -25 13
-70 39 -100 57 -30 18 -71 42 -90 52 -37 21 -211 122 -610 353 -135 79 -270
157 -301 174 -31 17 -115 65 -187 106 l-131 75 -3 361 c-3 387 -1 374 -55 402
-55 30 -123 0 -141 -61 -8 -25 -11 -708 -3 -788 2 -30 36 -55 181 -139 162
-93 198 -114 387 -223 72 -42 147 -85 165 -95 56 -32 295 -170 478 -277 96
-56 195 -113 220 -127 25 -14 133 -76 240 -138 107 -62 208 -119 224 -125 39
-16 60 -9 199 73 62 35 130 75 152 87 22 13 139 80 260 150 121 70 235 136
253 146 135 78 183 105 302 174 74 43 275 159 445 257 171 99 319 188 330 199
20 19 20 35 23 1110 2 939 0 1093 -12 1118 -12 21 -111 83 -428 266 -227 131
-424 245 -438 254 -14 9 -34 21 -45 26 -11 6 -126 72 -255 147 -129 75 -251
145 -270 156 -19 11 -111 64 -205 118 -93 54 -171 98 -172 99 -5 2 -12 70 -18
175 -4 63 -8 138 -10 165 -2 28 -6 100 -10 160 -6 108 -8 142 -20 320 -7 107
-12 175 -20 310 -3 55 -8 127 -10 160 -3 33 -7 101 -10 150 -3 50 -7 122 -10
160 -3 39 -7 111 -10 160 -3 50 -8 117 -10 150 -2 33 -7 107 -11 165 -3 58 -7
128 -9 155 -11 166 -18 299 -19 364 l-1 75 115 66 c63 37 234 136 380 220 146
83 276 163 290 176 l25 24 3 498 c2 319 -1 510 -7 532 -6 19 -21 41 -33 49
-31 19 -491 287 -548 319 -25 13 -103 58 -174 100 -122 71 -161 86 -196 74z
m257 -349 c120 -69 238 -137 263 -151 25 -14 74 -42 109 -64 34 -21 66 -38 70
-38 3 0 17 -9 29 -18 l24 -18 -1 -395 c0 -217 0 -404 0 -416 -1 -17 -59 -54
-318 -204 -175 -100 -336 -193 -357 -207 l-39 -24 -41 21 c-23 11 -59 31 -81
44 -172 102 -221 127 -255 127 -53 -1 -100 -47 -100 -100 0 -52 28 -77 187
-169 87 -50 164 -95 171 -99 8 -6 15 -36 17 -78 3 -38 7 -105 10 -149 3 -44 7
-118 10 -165 9 -145 16 -253 20 -315 2 -33 7 -103 10 -155 3 -52 8 -126 10
-165 7 -95 13 -200 20 -320 3 -55 8 -122 10 -150 2 -27 6 -97 10 -155 3 -58 8
-130 10 -160 2 -30 7 -102 10 -160 3 -58 8 -130 10 -160 3 -30 7 -98 10 -150
3 -52 8 -124 10 -160 3 -36 7 -101 10 -145 l5 -80 -87 -50 c-48 -27 -95 -54
-105 -60 -10 -5 -212 -122 -449 -260 -237 -137 -454 -263 -482 -279 -28 -16
-174 -100 -324 -187 l-274 -158 -672 416 c-370 228 -688 425 -707 438 -19 13
-219 137 -445 275 -225 139 -436 269 -467 289 -31 20 -92 58 -135 84 -43 27
-125 78 -183 114 -58 36 -118 73 -135 83 -16 10 -110 67 -208 129 -98 61 -181
111 -183 111 -3 0 -10 5 -17 10 -7 6 -88 58 -182 115 -184 114 -205 120 -265
83 -19 -11 -51 -30 -70 -41 -19 -10 -251 -144 -515 -297 -597 -344 -571 -330
-581 -320 -10 9 -234 140 -240 140 -3 0 -22 11 -44 25 -33 21 -331 194 -460
267 -251 143 -350 203 -351 212 -4 43 -3 1269 1 1276 4 6 109 68 302 179 45
25 396 228 538 311 63 36 122 69 130 73 8 4 42 24 75 45 l61 38 154 -89 c85
-49 171 -98 190 -109 19 -12 53 -31 75 -43 22 -13 139 -80 260 -150 247 -143
295 -171 377 -217 l58 -33 0 -135 c1 -74 1 -240 0 -368 0 -263 5 -293 62 -316
41 -17 76 -11 114 19 l29 23 5 374 c4 321 7 373 20 375 8 1 58 9 110 18 52 9
109 18 125 21 17 2 55 9 85 14 57 10 266 45 334 56 21 3 48 7 59 10 12 2 39 6
62 9 22 3 63 10 90 15 28 5 64 12 80 14 17 3 143 24 280 46 138 23 261 43 275
45 14 2 81 13 150 25 69 12 134 23 145 25 24 3 142 23 170 29 11 2 45 7 75 11
30 4 64 9 75 11 51 10 165 30 234 41 25 4 48 8 51 8 3 1 30 5 60 9 30 5 64 10
75 12 11 3 36 7 55 10 39 6 58 9 110 18 81 14 97 16 130 22 19 2 58 9 85 14
28 5 66 12 85 14 19 3 44 7 55 10 18 3 93 15 135 21 29 5 285 47 305 51 11 2
63 11 115 19 52 9 106 18 120 20 35 6 85 14 118 20 15 2 113 18 217 35 204 33
248 48 264 89 6 16 10 136 10 306 0 154 0 359 0 456 l1 177 198 114 c182 106
340 197 447 258 24 14 47 28 51 33 4 4 13 7 20 7 7 0 111 -57 231 -127z"/>
<path d="M9355 10701 c-6 -5 -33 -22 -62 -38 -28 -15 -89 -50 -135 -77 l-85
-49 1 -176 1 -176 60 -36 c33 -20 80 -47 105 -61 25 -14 67 -38 94 -53 48 -28
48 -28 80 -10 17 10 40 23 51 29 11 6 27 16 35 22 8 7 47 28 85 49 107 57 100
41 101 240 l0 174 -109 63 c-60 35 -127 73 -148 86 -43 24 -60 27 -74 13z"/>
<path d="M2760 8855 c-118 -69 -219 -126 -224 -128 -7 -2 -12 -363 -7 -502 1
-24 9 -34 39 -51 20 -11 96 -54 167 -96 72 -41 156 -89 188 -107 l58 -32 92
53 c50 29 98 56 107 60 8 4 67 38 130 76 l115 67 0 265 0 264 -125 73 c-69 41
-132 77 -140 80 -8 4 -52 29 -97 55 -44 26 -83 48 -85 48 -1 0 -100 -57 -218
-125z"/>
<path d="M12230 9274 c-146 -85 -272 -158 -280 -162 -59 -28 -169 -99 -185
-120 -18 -24 -19 -48 -19 -449 0 -403 1 -424 20 -449 10 -14 178 -118 374
-231 282 -163 362 -206 390 -205 25 0 75 23 180 85 80 46 241 139 358 207 158
90 216 129 227 150 13 24 15 98 15 448 0 404 -1 420 -20 445 -17 22 -187 124
-609 366 -84 48 -135 71 -155 70 -21 0 -120 -52 -296 -155z m425 -138 c11 -6
22 -13 25 -16 3 -3 23 -15 45 -27 22 -12 116 -66 210 -120 l169 -98 1 -328 c0
-181 -2 -332 -5 -336 -3 -4 -132 -80 -287 -170 l-283 -163 -67 39 c-38 21 -72
40 -78 42 -5 2 -17 9 -25 16 -8 7 -46 29 -85 50 -70 38 -124 69 -160 93 -11 7
-31 18 -45 25 -14 7 -46 24 -71 40 l-46 27 0 331 0 331 36 23 c20 13 144 85
276 160 132 76 244 141 249 146 6 5 33 -5 65 -23 31 -17 65 -36 76 -42z"/>
<path d="M9495 5263 c-61 -36 -431 -249 -495 -286 -96 -54 -120 -70 -121 -80
-6 -78 0 -770 7 -777 8 -8 388 -229 489 -285 22 -12 72 -41 111 -64 l72 -41
339 196 339 196 -2 391 c-2 437 -1 407 -13 407 -5 0 -148 80 -317 178 -170 99
-318 184 -329 190 -16 8 -31 4 -80 -25z"/>
<path d="M5130 5206 c-14 -7 -79 -45 -145 -83 -136 -80 -165 -97 -298 -172
-56 -33 -102 -66 -111 -82 -14 -24 -16 -72 -17 -351 0 -238 3 -332 12 -351 12
-26 55 -56 169 -119 25 -14 127 -73 228 -132 199 -115 227 -123 287 -86 17 10
41 25 55 33 24 13 291 167 410 237 95 55 90 29 90 408 0 381 3 366 -85 420
-29 17 -56 32 -60 32 -4 0 -19 8 -33 19 -15 10 -52 32 -82 49 -30 17 -118 67
-195 111 -145 84 -177 93 -225 67z m295 -346 c88 -50 164 -96 170 -101 10 -10
15 -473 5 -487 -3 -4 -68 -43 -145 -87 -77 -44 -147 -84 -156 -90 -10 -5 -39
-22 -65 -38 l-47 -27 -56 31 c-164 93 -315 181 -341 199 l-25 18 1 233 c1 129
2 237 3 241 1 3 65 43 144 89 78 45 171 99 206 120 l64 38 41 -24 c23 -13 113
-64 201 -115z"/>
</g>
</svg>
